<svg id="Layer_1" data-name="Layer 1" xmlns="http://www.w3.org/2000/svg" viewBox="0 0 122.07 103.38"><defs><style>.cls-1{fill:none;stroke:#000;stroke-miterlimit:10;stroke-width:0.75px;}</style></defs><title>flower1</title><path class="cls-1" d="M286.5,367.5s0-10,10-6c0,0,3-11,11-5,0,0,0-4,10-2,0,0,6-6,10,3,0,0,2-5,8-2,0,0,4-8,9-3,0,0,13-4,9,8,0,0,7-1,7,5,0,0,14-3,5,7,0,0,11,0,3,7,0,0,8,4-1,10,0,0-10,4-11,7,0,0,10-1,7,5,0,0,12,3,4,9,0,0-4,4-12,5,0,0,8,12-3,12,0,0,1,6-21,0,0,0-3,4,0,15,0,0,2,12-11,8,0,0-13,6-15-2,0,0-2-8,0-14a26.47,26.47,0,0,0-15,14s-11,13-10-3c0,0-11,9-13,3,0,0-11,4-5-7,0,0-12,4-8-4,0,0,4-8,9-9,0,0-13,3-13-4,0,0-1-4,7-7,0,0-8-5,0-6,0,0-6-6,8-9,0,0,9-1,16,2,0,0-14-11-14-16,0,0-2-8,7-8C274.5,380.5,281.5,363.5,286.5,367.5Z" transform="translate(-250.09 -350.48)"/><path class="cls-1" d="M296.5,406.5s-3-4,3-4c0,0-1-6,3-4,0,0,2-6,7-3,0,0,1-4,6-1,0,0,4-6,7-1,0,0,6-1,4,6,0,0,3,2,0,7,0,0-3,2-3,5,0,0-5,0-7,3,0,0-4,0-5,3,0,0-5-2-7,0,0,0-7,0-7-2C297.5,415.5,293.5,410.5,296.5,406.5Z" transform="translate(-250.09 -350.48)"/></svg>