<svg id="Layer_1" data-name="Layer 1" xmlns="http://www.w3.org/2000/svg" viewBox="0 0 132.95 226.83"><title>flower-7</title><path d="M201.55,231.08c6.79,3.63,13.77,8.31,21.44,11.09,4,1.47,9.28-.36,15.29-.8-3.54,12,8.75,7.77,12.78,13.93L240,259.36l0,1.81L248,263.4l-1.07,1.16c2.88,2.89,5.68,5.88,8.68,8.64,1.28,1.17,3.48,1.53,4.4,2.86a95.71,95.71,0,0,1,5.16,9.32l-8.07.72-5.67,9.52c-1,4.21-.88,9-3.19,11.56a14.52,14.52,0,0,1-10.75,4.11c-3.54-.32-6.81-3.7-11.38-6.45-.41,4.6-.35,7.61-1,10.44-.54,2.21-2,4.19-3.1,6.27a64.54,64.54,0,0,1-6-3.77,8.12,8.12,0,0,1-1.88-2.38c-3.73.83-6.51,1.47-9.29,2.06-.94.2-2.5,0-2.78.46-6.88,12.78-13.93-2.87-20.93-.07a15.08,15.08,0,0,1-2.65-5.49c-.46-3.18-.12-6.49-.12-11.49l-21.23,5.37c-1.18-4.24,4.2-11.23-4.67-12.38.47-1.84.43-4.07,1.51-5.44,2.75-3.49,6-6.59,10.23-11.12-4.82-.44-8.44-.06-11.44-1.23-3.51-1.37-6.48-4.11-9.69-6.26,1.86-2.47,3.44-5.23,5.66-7.32,2.43-2.29,5.8-3.7,2.52-7.85-.72-.91-.83-3.43-.13-4.17,7.06-7.5,9-19.85,22.87-22.15l-7.29-13.47c1.36-.47,3.3-.58,4.3-1.6,3-3,5.22-6.89,8.47-9.54,3.68-3,3-5.9-.4-6.78a27.34,27.34,0,0,0-13.68,0c-5.71,1.62-10.95,4.93-18,8.27,1-2.54,1.15-3.53,1.71-4.08,2.35-2.33,7-4.71,6.84-6.76-.41-5.37-1.65-11.53-4.79-15.7-12.48-16.61-12-30.15,2.64-44.82,1.08-1.08,2.52-2,3.09-3.33,5.42-12.41,16.23-12,27.44-13.05,13-1.25,25.78-5.09,38.68-7.65,4.65-.92,9.39-1.4,14.32-2.11V96.17c12.58,10.59,18.27,34.7,10.24,42.05l5,6.87-8,8.93-7-1.22,1.33,4.71-5.18,6.08c2.47.67,4.92,1.51,7.43,2s5.19.09,7.5.92c5.17,1.85,9,4.91,7.24,11.38s-7,6.62-11.57,5.29-8.3-2.57-12.34,1.47c-1.26,1.26-4.61.43-7,.55,2.14,7.84,11.78,13.25,19.29,11.5,6.42-1.5,13.18-3.39,19.53-2.68,4.15.46,8.3,4.84,11.37,8.39.71.82-2.56,5.89-4.84,8.16-1.24,1.24-5.13,1.76-6.31.78-4.27-3.54-7.63-3.55-12-.08-1.06.85-4.62-1.44-7.2-2.34H229.43l4.23,6.66.66-2,16,2.21-.14,2.49-18.23,2,12.11,11c-3.24,3.44-6.31,3.12-9.4-.11-1-1.09-1.71-3-2.91-3.42-6.23-1.91-13.33-3.1-4-10.81.49-.41.16-3-.5-3.37-1.37-.85-3.43-1.62-4.82-1.19a18.3,18.3,0,0,0-7.28,3.94C210.09,221.34,205.55,226.69,201.55,231.08Zm11.06,44.34-13.74-10c-1.54,4.08-2.78,9.11,2.57,11.63C205,278.72,210.73,281,212.61,275.42Zm-1.41-103.1,2.25-3.71c-2.38-1.33-4.74-2.7-7.21-3.82a17.45,17.45,0,0,0-1.85,3.31C206.54,169.67,208.89,171,211.19,172.32Z" transform="translate(-142.21 -96.17)"/></svg>