<svg id="Layer_1" data-name="Layer 1" xmlns="http://www.w3.org/2000/svg" viewBox="0 0 126.61 163.87"><title>flower-5</title><path d="M169.77,210.25,168.63,192c13.37-3.19,15.75-8,10.92-22.29-.71-2.09,1-7.24,1.8-7.27,9.71-.47,12-7,13.4-14.79.17-1,1.83-1.64,4.16-3.6l4.76,14.06,2.26.45,4-10.89,1.33,1.39c3.76-3.41,7.79-6.58,11.2-10.31,2.19-2.41,2.87-6.4,5.29-8.34,3.11-2.49,7.29-3.63,11-5.35l.71,10.69c3.12,2.73,6.7,6.15,10.62,9.13,1.34,1,4.2,1.85,5.23,1.13,7.34-5.1,14.65.22,15.61,4.46,1.24,5.51,7.53,13.9-2.2,19.13-1.68.9-2.51,3.4-4.77,6.66,5.8.79,10.08.93,14.08,2.05,3.26.91,6.18,3,9.25,4.58-2.1,2.75-4.12,5.56-6.33,8.21a20,20,0,0,1-3.37,2.58c4.91,7.13,2.63,17.43,11.38,22.52.54.32-.27,3.49-.89,5.17-1.64,4.42-2.74,9.36-5.56,12.91-2.23,2.81-6.79,5.6-10.11,5.38-12.27-.82-14.54,1-10.66,15.08,1.22,4.42,2.62,8.78,4.25,14.2-7.24-.65-15.41-5.4-15.56,9.49L228.3,261c-3.24,10,0,21.78-12.56,27.87l-12.8-15.46c-6.83,5.9-13.29,5.8-18.18-3.15-.44-.81-1.56-1.86-2.29-1.8-10.52.86-13.94-6.19-17.62-14.23C158,239.27,168.41,210.7,169.77,210.25ZM212,212.8c6.31,3.64,10.75,3.56,14.38-2.14,3.92-6.15,2.48-17.78-3.53-22.72-1.42-1.16-4.6-.17-8.74-.17C224.75,198.82,224.24,202.81,212,212.8Z" transform="translate(-162.54 -125)"/></svg>