<svg id="Layer_1" data-name="Layer 1" xmlns="http://www.w3.org/2000/svg" viewBox="0 0 91.6 106.45"><defs><style>.cls-1{fill:none;stroke:#000;stroke-miterlimit:10;stroke-width:0.75px;}</style></defs><title>flower2</title><path class="cls-1" d="M260.66,290.29s6.36-16.12,5.51-22.48c0,0,1.27-17.39,29.69-20.78,0,0,15.27,2.12,25.87,12.72,0,0,8.06-1.27,12.72,25.45,0,0,7.63,8.06,5.51,17.81,0,0,3.82,2.12,3,8.48a10.15,10.15,0,0,0,1.7,5.51s2.12,6.36-3.82,13.57c0,0-10.18,9.33-9.75,16.54,0,0-5.94,7.63-15.69,5.09,0,0-14-3.39-17.39-1.7,0,0-19.51-3-22.48-14.42,0,0-14.84,8.91-21.21-29.69A18.3,18.3,0,0,1,260.66,290.29Z" transform="translate(-253.77 -246.65)"/><path class="cls-1" d="M334.45,285.2c-32.27-18.79-36.85-4.1-36.47-3l-5.51,25.87c2.51,16.62,12.63,24,25.87,27.57-14.42,0-22.48-7.21-22.48-7.21-9.33-2.54-6.36-23.75-6.36-23.75,5.94-14.42,3.39-23.75,3.39-23.75,1.7-17.81,9.33-3.82,9.33-3.82" transform="translate(-253.77 -246.65)"/><path class="cls-1" d="M295.69,293a12.81,12.81,0,0,0,12.89-4.8s3.39-9.75,8.91,0c0,0,7.21,9.75,3,17.39,0,0-.85,8.91-6.36,5.51,0,0,5.51-19.08-9.75-16.54,0,0-12.78,16.75-9.36,22.79" transform="translate(-253.77 -246.65)"/><path class="cls-1" d="M297.27,305.73s16-2.72,12.16,3.64c0,0,6.79-.42,4.24,6.36,0,0,.42,1.7-9.33,0" transform="translate(-253.77 -246.65)"/><path class="cls-1" d="M304.39,329.32s8-5.29,5.25-12.83" transform="translate(-253.77 -246.65)"/><path class="cls-1" d="M307.73,313.61c-2.54,0-2.12-3-2.12-3,4.67-3.82,4.67,3,4.67,3s-4-1.6-13,8.11" transform="translate(-253.77 -246.65)"/><path class="cls-1" d="M310.28,321.72s10.6-5.56,11.45,0c0,0,8.91,12.72,2.12,15.69,0,0-.42-1.27-5.51-1.7" transform="translate(-253.77 -246.65)"/><path class="cls-1" d="M323.85,337.36c-5.09,2.54-7.63,1.7-7.63,1.7-17.39-4.67-40.71-3.39-40.71-3.39s5.94-3.82,6.79-14c0,0,3.45-10.81,6.82-12.19" transform="translate(-253.77 -246.65)"/><path class="cls-1" d="M289.07,305.13s-11-1.27-13.57,14c0,0-2.54,11,0,16.54" transform="translate(-253.77 -246.65)"/><path class="cls-1" d="M254.16,303.79s6.08-12.23,22.62-15.62a34.87,34.87,0,0,0,10.6-2.12l5.51-5.09" transform="translate(-253.77 -246.65)"/></svg>