<svg id="Layer_1" data-name="Layer 1" xmlns="http://www.w3.org/2000/svg" viewBox="0 0 81.19 178.22"><title>flower-4</title><path d="M212.64,126l4.82-4c3.17,4.36,5.86,8.81,9.34,12.49,1.31,1.38,4.8,1.93,6.73,1.25,5.06-1.78,5.2,1,4.5,4.29-1.36,6.38-3,12.71-4.8,19-1.07,3.63-.19,5.15,3.51,6.34,2.47.8,6.07,3.45,6.05,5.25,0,2.36-3.1,4.7-5.51,7.91a32.44,32.44,0,0,1,1.87,6.83c.26,2.78.49,6.45-1,8.21-1.05,1.22-5.09-.12-9.53-.44,1.86,4,3.65,7.75,5.37,11.54s4.86,7.56,4.72,11.25c-.64,17.53,2.12,34.07,10.51,49.66,1.2,2.22.17,5.65-1.07,8.7-4.68-12.77-13.34-24-12.38-38.43.77-11.58-2.19-17.15-14.16-16-2,.2-4.28-1.67-7-2.81-2,3.78-5,7.86-9.31,1-12.41,7-14,6.85-15.43-2.09-4.41,1.64-6.79,1.2-8.38-4.47-1.3-4.64-5.78-8.75-9.66-12.19-3.6-3.19-4.31-5.79-1.84-9.83,1-1.72,2.1-4.5,1.41-6-2.58-5.79-2.33-10.38,3.78-13.41-4.89-8.06-4.75-8.72,2.66-10.53l-1-19.2L192,144.28l1.38-6.21L205,139.81c5-16.1-4.52-29.4-9-43.81C202.06,99.62,205.08,105,212.64,126Z" transform="translate(-168.54 -96)"/></svg>