<svg id="Layer_1" data-name="Layer 1" xmlns="http://www.w3.org/2000/svg" viewBox="0 0 226.83 132.95"><title>flower-6</title><path d="M230.17,216.72c3.63-6.79,8.31-13.77,11.09-21.44,1.47-4-.36-9.28-.8-15.29,12,3.54,7.77-8.75,13.93-12.78l4.06,11.09,1.81,0,2.23-8.06,1.16,1.07c2.89-2.88,5.88-5.68,8.64-8.68,1.17-1.28,1.53-3.48,2.86-4.4a95.71,95.71,0,0,1,9.32-5.16l.72,8.07,9.52,5.67c4.21,1,9,.88,11.56,3.19a14.52,14.52,0,0,1,4.11,10.75c-.32,3.54-3.7,6.81-6.45,11.38,4.6.41,7.61.35,10.44,1,2.21.54,4.19,2,6.27,3.1a64.54,64.54,0,0,1-3.77,6,8.12,8.12,0,0,1-2.38,1.88c.83,3.73,1.47,6.51,2.06,9.29.2.94,0,2.5.46,2.78,12.78,6.88-2.87,13.93-.07,20.93a15.08,15.08,0,0,1-5.49,2.65c-3.18.46-6.49.12-11.49.12l5.37,21.23c-4.24,1.18-11.23-4.2-12.38,4.67-1.84-.47-4.07-.43-5.44-1.51-3.49-2.75-6.59-6-11.12-10.23-.44,4.82-.06,8.44-1.23,11.44-1.37,3.51-4.11,6.48-6.26,9.69-2.47-1.86-5.23-3.44-7.32-5.66-2.29-2.43-3.7-5.8-7.85-2.52-.91.72-3.43.83-4.17.13-7.5-7.06-19.85-9-22.15-22.87l-13.47,7.29c-.47-1.36-.58-3.3-1.6-4.3-3-3-6.89-5.22-9.54-8.47-3-3.68-5.9-3-6.78.4A27.34,27.34,0,0,0,196,253c1.62,5.71,4.93,10.95,8.27,18-2.54-1-3.53-1.15-4.08-1.71-2.33-2.35-4.71-7-6.76-6.84-5.37.41-11.53,1.65-15.7,4.79-16.61,12.48-30.15,12-44.82-2.64-1.08-1.08-2-2.52-3.33-3.09-12.41-5.42-12-16.23-13.05-27.44-1.25-13-5.09-25.78-7.65-38.68-.92-4.65-1.4-9.39-2.11-14.32H95.27c10.59-12.58,34.7-18.27,42.05-10.24l6.87-5,8.93,8-1.22,7,4.71-1.33,6.08,5.18c.67-2.47,1.51-4.92,2-7.43s.09-5.19.92-7.5c1.85-5.17,4.91-9,11.38-7.24s6.62,7,5.29,11.57-2.57,8.3,1.47,12.34c1.26,1.26.43,4.61.55,7,7.84-2.14,13.25-11.78,11.5-19.29-1.5-6.42-3.39-13.18-2.68-19.53.46-4.15,4.84-8.3,8.39-11.37.82-.71,5.89,2.56,8.16,4.84,1.24,1.24,1.76,5.13.78,6.31-3.54,4.27-3.55,7.63-.08,12,.85,1.06-1.44,4.62-2.34,7.2v15.28l6.66-4.23-2-.66,2.21-16,2.49.14,2,18.23,11-12.11c3.44,3.24,3.12,6.31-.11,9.4-1.09,1-3,1.71-3.42,2.91-1.91,6.23-3.1,13.33-10.81,4-.41-.49-3-.16-3.37.5-.85,1.37-1.62,3.43-1.19,4.82a18.3,18.3,0,0,0,3.94,7.28C220.43,208.18,225.78,212.72,230.17,216.72Zm44.34-11.06-10,13.74c4.08,1.54,9.11,2.78,11.63-2.57C277.82,213.28,280.12,207.54,274.52,205.66Zm-103.1,1.41-3.71-2.25c-1.33,2.38-2.7,4.74-3.82,7.21a17.45,17.45,0,0,0,3.31,1.85C168.76,211.73,170.06,209.38,171.42,207.08Z" transform="translate(-95.27 -143.11)"/></svg>